<?xml version="1.0" standalone="no"?>
<svg xmlns="http://www.w3.org/2000/svg" viewBox="0 0 1440 960">
  <path fill="#111827" fill-opacity="1" d="M0,576L34.3,480C68.6,384,137,192,206,240C274.3,288,343,576,411,640C480,704,549,544,617,528C685.7,512,754,640,823,624C891.4,608,960,448,1029,352C1097.1,256,1166,224,1234,272C1302.9,320,1371,448,1406,512L1440,576L1440,960L1405.7,960C1371.4,960,1303,960,1234,960C1165.7,960,1097,960,1029,960C960,960,891,960,823,960C754.3,960,686,960,617,960C548.6,960,480,960,411,960C342.9,960,274,960,206,960C137.1,960,69,960,34,960L0,960Z"></path>
</svg>